# AST/ASF file generated using VICON BodyLanguage
# -----------------------------------------------
:version 1.10
:name VICON
:units
  mass 1.0
  length 0.45
  angle deg
:documentation
   .ast/.asf automatically generated from VICON data using
   VICON BodyBuilder and BodyLanguage model FoxedUp or BRILLIANT.MOD
:root
   order TX TY TZ RX RY RZ
   axis XYZ
   position 0 0 0  
   orientation 0 0 0 
:bonedata
  begin
     id 1 
     name lhipjoint
     direction 0.578396 -0.714046 0.394458 
     length 2.21935 
     axis 0 0 0  XYZ
  end
  begin
     id 2 
     name lfemur
     direction 0.34202 -0.939693 0  
     length 6.39105  
     axis 0 0 20  XYZ
    dof rx ry rz
    limits (-160.0 20.0)
           (-70.0 70.0)
           (-60.0 70.0)
  end
  begin
     id 3 
     name ltibia
     direction 0.34202 -0.939693 0   
     length 6.99037   
     axis 0 0 20   XYZ
    dof rx
    limits (-10.0 170.0)
  end
  begin
     id 4 
     name lfoot
     direction 0.0582372 -0.160005 0.985397   
     length 2.06111   
     axis -90 7.62852e-016 20   XYZ
    dof rx rz
    limits (-45.0 90.0)
           (-70.0 20.0)
  end
  begin
     id 5 
     name ltoes
     direction 1.53556e-011 -4.21875e-011 1   
     length 1.04074   
     axis -90 7.62852e-016 20   XYZ
    dof rx
    limits (-90.0 20.0)
  end
  begin
     id 6 
     name rhipjoint
     direction -0.558179 -0.726269 0.40121   
     length 2.182  
     axis 0 0 0  XYZ 
  end
  begin
     id 7 
     name rfemur
     direction -0.34202 -0.939693 0   
     length 6.51172   
     axis 0 0 -20   XYZ
    dof rx ry rz
    limits (-160.0 20.0)
           (-70.0 70.0)
           (-70.0 60.0)
  end
  begin
     id 8 
     name rtibia
     direction -0.34202 -0.939693 0   
     length 7.02607   
     axis 0 0 -20   XYZ
    dof rx
    limits (-10.0 170.0)
 end
 begin
     id 9 
     name rfoot
     direction -0.0788856 -0.216737 0.973038   
     length 1.96734  
     axis -90 -7.62852e-016 -20   XYZ
    dof rx rz
    limits (-45.0 90.0)
           (-20.0 70.0)
  end
  begin
     id 10 
     name rtoes
     direction -1.53567e-011 -4.21783e-011 1   
     length 0.990825   
     axis -90 -7.62852e-016 -20   XYZ
    dof rx
    limits (-90.0 20.0)
  end
  begin
     id 11 
     name lowerback
     direction 0.00668177 0.999323 -0.0361741   
     length 1.7655   
     axis 0 0 0   XYZ
    dof rx ry rz
    limits (-20.0 45.0)
           (-30.0 30.0)
           (-30.0 30.0)
  end
  begin
     id 12 
     name upperback
     direction -0.00222086 0.99851 0.0545167   
     length 1.74912   
     axis 0 0 0   XYZ
    dof rx ry rz
    limits (-20.0 45.0)
           (-30.0 30.0)
           (-30.0 30.0)
  end
  begin
     id 13 
     name thorax
     direction -0.00733971 0.997496 0.0703443   
     length 1.75715   
     axis 0 0 0   XYZ
    dof rx ry rz
    limits (-20.0 45.0)
           (-30.0 30.0)
           (-30.0 30.0)
  end
  begin
     id 14 
     name lowerneck
     direction 0.0279797 0.994795 0.0979765   
     length 1.46939   
     axis 0 0 0   XYZ
    dof rx ry rz
    limits (-20.0 45.0)
           (-30.0 30.0)
           (-30.0 30.0)
  end
  begin
     id 15 
     name upperneck
     direction 0.00339187 0.976776 -0.214238   
     length 1.48018   
     axis 0 0 0   XYZ
    dof rx ry rz
    limits (-20.0 45.0)
           (-30.0 30.0)
           (-30.0 30.0)
  end
  begin
     id 16
     name head
     direction -0.00263506 0.996603 -0.0823096  
     length 1.4976  
     axis 0 0 0   XYZ
    dof rx ry rz
    limits (-20.0 45.0)
           (-30.0 30.0)
           (-30.0 30.0)
  end
  begin
     id 17 
     name lclavicle
     direction 0.894044 0.44508 -0.0508781  
     length 3.03024  
     axis 0 0 0   XYZ
    dof ry rz
    limits (-20.0 10.0)
           (0.0 20.0)
  end
  begin
     id 18 
     name lhumerus
     direction 1 -4.48961e-011 -2.39475e-018   
     length 4.4661   
     axis 180 -30 -90   XYZ
    dof rx ry rz
    limits (-60.0 90.0)
           (-90.0 90.0)
           (-90.0 90.0)
  end
  begin
     id 19
     name lradius
     direction 1 -4.48961e-011 9.29328e-028   
     length 3.41414   
     axis 180 -30 -90   XYZ
    dof rx
    limits (-10.0 170.0)
  end
  begin
     id 20
     name lwrist
     direction 1 -4.48985e-011 1.53461e-026   
     length 1.70707   
     axis -1.09697e-014 90 90   XYZ
    dof ry
    limits (-180.0 0.0)
 end
  begin
     id 21 
     name lhand
     direction 1 -4.48966e-011 3.06923e-026   
     length 0.328298   
     axis -1.95843e-014 90 90   XYZ
    dof rx rz
    limits (-90.0 90.0)
           (-45.0 45.0)
  end
  begin
     id 22 
     name lfingers
     direction 1 -4.48893e-011 6.13845e-026   
     length 0.264682   
     axis -3.91686e-014 90 90   XYZ
    dof rx
    limits (0.0 90.0)
  end
  begin
     id 23
     name lthumb
     direction 0.707107 -6.34876e-011 0.707107   
     length 0.380032   
     axis -90 45 2.85299e-015   XYZ
    dof rx rz
    limits (-45.0 45.0)
           (-45.0 45.0)
  end
  begin
     id 24 
     name rclavicle
     direction -0.936955 0.347862 -0.0332887   
     length 3.26927  
     axis 0 0 0   XYZ 
    dof ry rz
    limits (-10.0 20.0)
           (-20.0 0.0)
  end
  begin
     id 25 
     name rhumerus
     direction -1 -4.4896e-011 1.78637e-018  
     length 4.40431   
     axis 180 30 90   XYZ
    dof rx ry rz
    limits (-90.0 60.0)
           (-90.0 90.0)
           (-90.0 90.0)
  end
  begin
     id 26 
     name rradius
     direction -1 -4.48955e-011 9.34036e-027   
     length 3.04688   
     axis 180 30 90   XYZ
    dof rx
    limits (-10.0 170.0)
  end
  begin
     id 27 
     name rwrist
     direction -1 -4.49011e-011 1.53461e-026   
     length 1.52344   
     axis -1.09697e-014 -90 -90   XYZ
    dof ry
    limits (-180.0 0.0)
  end
  begin
     id 28
     name rhand
     direction -1 -4.48834e-011 3.06923e-026   
     length 0.500489   
     axis -1.95843e-014 -90 -90   XYZ
    dof rx rz
    limits (-90.0 90.0)
           (-45.0 45.0)
  end
  begin
     id 29
     name rfingers
     direction -1 -4.48967e-011 6.13845e-026   
     length 0.403507   
     axis -3.91686e-014 -90 -90   XYZ
    dof rx
    limits (0.0 90.0)
  end
  begin
     id 30
     name rthumb
     direction -0.707107 -6.34826e-011 0.707107   
     length 0.579358   
     axis -90 -45 -2.85299e-015   XYZ
    dof rx rz
    limits (-45.0 45.0)
           (-45.0 45.0)
  end
:hierarchy
  begin
    root lhipjoint rhipjoint lowerback
    lhipjoint lfemur
    lfemur ltibia
    ltibia lfoot
    lfoot ltoes
    rhipjoint rfemur
    rfemur rtibia
    rtibia rfoot
    rfoot rtoes
    lowerback upperback
    upperback thorax
    thorax lowerneck lclavicle rclavicle
    lowerneck upperneck
    upperneck head
    lclavicle lhumerus
    lhumerus lradius
    lradius lwrist
    lwrist lhand lthumb
    lhand lfingers
    rclavicle rhumerus
    rhumerus rradius
    rradius rwrist
    rwrist rhand rthumb
    rhand rfingers
  end

#!OML:ASF H:\IndianDance\Patient Classification 1\Patient 1\Session 1\dancer.ASF
:FULLY-SPECIFIED
:DEGREES
330
root 0.270059 15.528 11.5097 -187.414 -27.097 -155.084
lowerback 2.29448 -0.188448 5.13795
upperback -8.22035 -0.170025 5.19859
thorax -10.0304 -0.547638 2.76553
lowerneck -10.9808 -12.0124 -7.06654
upperneck 16.5418 -19.7394 15.2093
head 9.293 -8.99459 3.65608
rclavicle 3.06128e-014 -2.70347e-014
rhumerus 59.6462 -50.6388 -65.4157
rradius 64.0427
rwrist -75.7676
rhand -58.5221 3.78221
rfingers 7.12502
rthumb -30.7438 -23.6678
lclavicle 3.06128e-014 -2.70347e-014
lhumerus 35.5441 -68.4317 4.63729
lradius 105.835
lwrist 16.7896
lhand -49.0989 2.13863
lfingers 7.12502
lthumb -21.724 30.9397
rfemur -9.8659 6.73785 -6.15629
rtibia 39.0465
rfoot 31.5614 -11.318
rtoes 16.1368
lfemur -21.0193 15.7608 -4.31714
ltibia 40.1315
lfoot -18.7126 4.27086
ltoes 14.344
331
root 0.26205 15.5475 11.5126 -186.837 -26.2177 -155.138
lowerback 2.19828 -0.298934 5.18886
upperback -8.29822 -0.341312 5.23593
thorax -10.059 -0.644513 2.79939
lowerneck -11.1412 -11.8509 -6.92377
upperneck 16.5777 -19.571 15.2592
head 9.3061 -8.90301 3.66824
rclavicle -3.73715e-014 2.70347e-014
rhumerus 59.4689 -51.1818 -64.5154
rradius 64.0714
rwrist -73.6279
rhand -59.1495 4.99109
rfingers 7.12502
rthumb -31.3418 -22.3447
lclavicle -3.73715e-014 2.70347e-014
lhumerus 35.623 -68.2994 4.61132
lradius 105.719
lwrist 16.8769
lhand -49.1298 2.11374
lfingers 7.12502
lthumb -21.7537 30.9113
rfemur -9.26636 6.12978 -6.21205
rtibia 41.9156
rfoot 32.0854 -9.77335
rtoes 16.018
lfemur -21.0865 16.0095 -4.29245
ltibia 39.7814
lfoot -18.5171 4.93273
ltoes 14.1333
332
root 0.255362 15.5657 11.5165 -186.215 -25.2793 -155.238
lowerback 2.10693 -0.403629 5.21962
upperback -8.36901 -0.505906 5.25171
thorax -10.0824 -0.736569 2.81981
lowerneck -11.2857 -11.6811 -6.78668
upperneck 16.5755 -19.3905 15.3366
head 9.30571 -8.8068 3.69353
rclavicle -2.62396e-014 4.29375e-014
rhumerus 59.2132 -51.6947 -63.5635
rradius 64.1209
rwrist -71.3764
rhand -59.6851 6.19354
rfingers 7.12502
rthumb -31.852 -21.042
lclavicle -2.62396e-014 4.29375e-014
lhumerus 35.6892 -68.151 4.56855
lradius 105.616
lwrist 16.9518
lhand -49.1563 2.09986
lfingers 7.12502
lthumb -21.7792 30.8945
rfemur -8.79148 5.63536 -6.2915
rtibia 45.0111
rfoot 32.5072 -8.33705
rtoes 16.0834
lfemur -21.1741 16.2826 -4.31089
ltibia 39.4544
lfoot -18.3346 5.62222
ltoes 13.9915
333
root 0.249725 15.5824 11.5208 -185.554 -24.2699 -155.375
lowerback 2.0218 -0.500161 5.23046
upperback -8.43489 -0.660531 5.25333
thorax -10.1037 -0.82226 2.83455
lowerneck -11.4196 -11.5029 -6.65004
upperneck 16.5407 -19.1953 15.4274
head 9.29216 -8.7048 3.72661
rclavicle 1.27222e-014 2.22639e-014
rhumerus 58.8647 -52.1685 -62.5408
rradius 64.2056
rwrist -69.043
rhand -60.1428 7.42941
rfingers 7.12502
rthumb -32.2878 -19.7184
lclavicle 1.27222e-014 2.22639e-014
lhumerus 35.7246 -67.9951 4.52606
lradius 105.533
lwrist 17.0186
lhand -49.1853 2.10223
lfingers 7.12502
lthumb -21.807 30.8936
rfemur -8.42984 5.26135 -6.38046
rtibia 48.2934
rfoot 32.8249 -7.00641
rtoes 16.3569
lfemur -21.2792 16.5874 -4.36321
ltibia 39.1561
lfoot -18.1728 6.34453
ltoes 13.8932
334
root 0.244872 15.5975 11.5253 -184.871 -23.1783 -155.518
lowerback 1.9374 -0.579004 5.25104
upperback -8.49375 -0.791123 5.24332
thorax -10.1181 -0.897218 2.82811
lowerneck -11.5399 -11.3252 -6.48661
upperneck 16.4679 -18.9964 15.5113
head 9.25925 -8.6027 3.75508
rclavicle 2.10712e-014 -1.43125e-014
rhumerus 58.3976 -52.6145 -61.4234
rradius 64.328
rwrist -66.6059
rhand -60.5224 8.77777
rfingers 7.12502
rthumb -32.649 -18.2958
lclavicle 2.10712e-014 -1.43125e-014
lhumerus 35.772 -67.834 4.4616
lradius 105.464
lwrist 17.0813
lhand -49.2133 2.10239
lfingers 7.12502
lthumb -21.8338 30.8907
rfemur -8.16329 5.00439 -6.44356
rtibia 51.7258
rfoot 33.0318 -5.81008
rtoes 16.7185
lfemur -21.3955 16.9339 -4.41717
ltibia 38.8919
lfoot -18.033 7.08886
ltoes 13.8873
